<?xml version="1.0" encoding="UTF-8"?>
<!-- Created with Inkscape (http://www.inkscape.org/) -->
<svg width="64" height="64" version="1.1" viewBox="0 0 16.933 16.933" xmlns="http://www.w3.org/2000/svg">
 <g fill="#002a71" stroke="#fff">
  <g transform="matrix(.26458 0 0 .26458 -.49547 -.60346)" stroke-width=".18897">
   <rect x="18.47" y="29.393" width="3.816" height="1.932"/>
   <rect x="23.193" y="29.393" width="3.822" height="1.932"/>
   <rect x="27.979" y="29.393" width="3.825" height="1.932"/>
   <rect x="32.763" y="29.393" width="3.828" height="1.932"/>
   <rect x="37.489" y="29.393" width="3.822" height="1.932"/>
   <rect x="42.088" y="29.393" width="3.852" height="1.932"/>
   <path d="m51.985 34.35v-2.362h-4.379v-3.358h1.55v-13.379h-1.062v11.445h-8.069v-1.881h-0.61v1.934h-4.69v-2.063h-0.903v-4.12h0.903v-1.523h3.667v1.523h0.96v-3.51h-0.96v0.967h-3.667v-0.967h-0.903v-2.26h8.422v-1.961h-8.422v-1.547h-1.12v-2.216h1.96v-0.557h-1.96v-3.816h1.195v-0.454h-1.195v-0.434h-1.092v0.435h-1.19v0.454h1.189v3.815h-1.955v0.558h1.955v2.217h-1.122v1.547h-8.425v1.961h8.425v2.26h-0.942v0.967h-3.621v-0.967h-0.966v3.51h0.966v-1.523h3.621v1.523h0.942v4.12h-0.971v2.063h-4.783v-1.934h-0.608v1.881h-8.065v-11.447h-1.033v13.378h1.546v3.358h-4.405v2.362h2.894v3.23h-2.765v9.84s2.182 5.011 9.322 8.673c0 0 1.575 0.763 2.726 1.196 1.156 0.432 3.188 1.424 3.828 1.906 0.609 0.511 1.735 1.221 3.851 1.221h0.133c2.119 0 3.247-0.71 3.855-1.221 0.645-0.482 2.673-1.475 3.825-1.906 1.123-0.434 2.7-1.196 2.7-1.196 7.167-3.662 9.347-8.673 9.347-8.673v-9.84h-2.789v-3.23h2.89zm-3.89 3.384-15.939-4.705v14.497h-16.744c-2.346 0-1.961-1.912-1.961-1.912v-7.445h2.892v-0.563l15.813-4.577v-1.071l-15.813 4.528v-2.032h1.321v-5.674h29.047v3.178h-14.556l15.939 4.654v1.122z"/>
   <path d="m24.09 45.233s0.736 0.208 0.771 0.588c0-0.38 0.776-0.588 0.776-0.588 3.466-0.786 3.563-2.518 3.563-2.518-1.38 1.424-2.863 1.731-3.667 1.807v-5.291h1.226v-0.609h-1.226v-1.243h-1.252v1.243h-1.255v0.609h1.255v5.291c-0.771-0.049-2.343-0.329-3.76-1.807 0 1e-3 0.063 1.732 3.569 2.518z"/>
  </g>
  <path d="m13.847 16.534c-0.1315-0.04842-0.2278-0.13785-0.34528-0.24844-0.20875-0.19711-0.46857-0.44291-0.9673-0.44291-0.49926 0-0.75882 0.2458-0.96757 0.44291-0.17648 0.16642-0.30374 0.2868-0.57678 0.2868-0.27305 0-0.40057-0.12038-0.57678-0.2868-0.20875-0.19711-0.46857-0.44291-0.96757-0.44291s-0.75855 0.2458-0.96704 0.44291c-0.17648 0.16642-0.30374 0.2868-0.57652 0.2868-0.27331 0-0.40057-0.12038-0.57678-0.2868-0.20902-0.19711-0.46831-0.44291-0.9673-0.44291-0.49953 0-0.75855 0.2458-0.9673 0.44291-0.17621 0.16642-0.30321 0.2868-0.57626 0.2868-0.27305 0-0.39978-0.12038-0.57626-0.2868-0.20849-0.19711-0.46751-0.44291-0.96625-0.44291-0.49926 0-0.7567 0.2458-0.96519 0.44291-0.09631 0.09102-0.17833 0.16668-0.27543 0.21801-0.03651-0.15531-0.06641-0.313-0.09075-0.47228 0.363-0.05847 0.57678-0.25823 0.75326-0.42439 0.17648-0.16695 0.30347-0.28733 0.57626-0.28733 0.27305 0 0.40031 0.12038 0.57678 0.28707 0.20849 0.19711 0.46831 0.44238 0.96704 0.44238 0.49926 0 0.75882-0.24526 0.96757-0.44211 0.17621-0.16695 0.30347-0.28733 0.57652-0.28733 0.27305 0 0.40031 0.12038 0.57678 0.28733 0.20849 0.19685 0.46804 0.44211 0.96757 0.44211 0.499 0 0.75855-0.24526 0.9673-0.44211 0.17595-0.16695 0.30321-0.28733 0.57626-0.28733 0.27331 0 0.40084 0.12038 0.57678 0.28733 0.20875 0.19685 0.46857 0.44211 0.96757 0.44211s0.75855-0.24526 0.9673-0.44211c0.17621-0.16695 0.30374-0.28733 0.57705-0.28733 0.27252 0 0.40031 0.12038 0.57678 0.28733 0.18865 0.17806 0.42015 0.39555 0.83263 0.4355-0.0254 0.16589-0.05847 0.32967-0.0971 0.49159z" stroke-width=".049999"/>
 </g>
</svg>
