<?xml version="1.0" encoding="UTF-8"?>
<!-- Created with Inkscape (http://www.inkscape.org/) -->
<svg width="120" height="40" version="1.1" viewBox="0 0 31.75 10.583" xmlns="http://www.w3.org/2000/svg">
 <defs>
  <clipPath id="clipPath1392">
   <path d="M 0,508.032 H 1027.531 V 0 H 0 Z"/>
  </clipPath>
 </defs>
 <g transform="matrix(.037877 0 0 -.037877 -3.6543 14.795)" clip-path="url(#clipPath1392)" fill="#fff" stroke="#114794">
  <g transform="translate(348.19 262.88)">
   <path d="m0 0c7.675 0 14.84 3.844 19.083 10.239l29.484 44.433h-42.683c-7.676 0-14.84-3.845-19.084-10.24l-5.883-8.866c-10.102-15.224 0.813-35.566 19.083-35.566" fill="#fff" stroke="#114794"/>
  </g>
  <g transform="translate(544.57 317.56)">
   <path d="m0 0h-16.026v-129.89c0-12.641 10.247-22.888 22.888-22.888s22.888 10.247 22.888 22.888v100.14c0 16.431-13.32 29.75-29.75 29.75" fill="#fff" stroke="#114794"/>
  </g>
  <g transform="translate(504.85 257.61)">
   <path d="m0 0-11.613-7.706c-15.223-10.102-35.566 0.813-35.566 19.083 0 7.675 3.844 14.84 10.239 19.083l44.432 29.484v-45.98c0-5.616-2.813-10.859-7.492-13.964" fill="#fff" stroke="#114794"/>
  </g>
  <g transform="translate(413.58 317.56)">
   <path d="m0 0-82.718-126.61c-7.35-11.251 0.722-26.167 14.161-26.167h23.716l69.747 106.76c12.927 19.787-1.27 46.021-24.906 46.021" fill="#fff" stroke="#114794"/>
  </g>
  <g transform="translate(440.71 210.55)">
   <path d="m0 0h-12.349c-7.949 0-15.361-4.011-19.708-10.666l-22.938-35.11h55.754c12.783 0 23.119 10.48 22.884 23.317-0.23 12.6-11.041 22.459-23.643 22.459" fill="#fff" stroke="#114794"/>
  </g>
  <g transform="translate(924.74 293.48)">
   <path d="m0 0h-331.18c-1.463 0-2.646 1.183-2.646 2.646 0 1.462 1.183 2.645 2.646 2.645h331.18c1.462 0 2.646-1.183 2.646-2.645 0-1.463-1.184-2.646-2.646-2.646" fill="#fff" stroke="#114794"/>
  </g>
  <g transform="translate(924.74 179.06)">
   <path d="m0 0h-329.86c-1.462 0-2.645 1.183-2.645 2.646 0 1.462 1.183 2.645 2.645 2.645h329.86c1.462 0 2.646-1.183 2.646-2.645 0-1.463-1.184-2.646-2.646-2.646" fill="#fff" stroke="#114794"/>
  </g>
  <g transform="translate(616.15 230.17)">
   <path d="m0 0-22.126 30.055c-1.077 1.469-1.861 3.232-1.861 5.385 0 4.015 3.329 7.244 7.54 7.244 3.426 0 5.581-1.858 7.441-4.6l16.643-23.987 16.937 24.182c1.86 2.742 4.112 4.505 7.244 4.505 4.603 0 7.342-3.232 7.342-7.344 0-2.056-0.978-3.916-1.957-5.287l-22.124-29.861v-19.776c0-4.208-3.329-7.537-7.54-7.537-4.21 0-7.539 3.329-7.539 7.537z" fill="#fff" stroke="#114794"/>
  </g>
  <g transform="translate(666.57 211.28)">
   <path d="m0 0v53.455c0 4.208 3.329 7.537 7.539 7.537h37.987c3.719 0 6.755-3.034 6.755-6.755s-3.036-6.658-6.755-6.658h-30.547v-13.9h26.139c3.721 0 6.756-3.037 6.756-6.758 0-3.718-3.035-6.655-6.756-6.655h-26.139v-14.392h31.036c3.719 0 6.756-3.035 6.756-6.755 0-3.721-3.037-6.658-6.756-6.658h-38.476c-4.21 0-7.539 3.329-7.539 7.539" fill="#fff" stroke="#114794"/>
  </g>
  <g transform="translate(771.72 232.42)">
   <path d="m0 0-9.497 22.614-9.495-22.614zm-42.392-18.994 23.889 53.944c1.664 3.721 4.698 5.971 8.811 5.971h0.881c4.111 0 7.048-2.25 8.714-5.971l23.887-53.944c0.489-1.077 0.784-2.056 0.784-3.035 0-4.015-3.132-7.244-7.148-7.244-3.523 0-5.873 2.055-7.244 5.189l-4.601 10.768h-30.155l-4.797-11.258c-1.271-2.939-3.818-4.699-6.95-4.699-3.916 0-6.952 3.131-6.952 7.047 0 1.079 0.392 2.155 0.881 3.232" fill="#fff" stroke="#114794"/>
  </g>
  <g transform="translate(839.48 238.98)">
   <path d="m0 0c7.342 0 11.553 3.916 11.553 9.692v0.197c0 6.461-4.503 9.79-11.848 9.79h-14.978v-19.679zm-30.35 25.75c0 4.208 3.329 7.537 7.539 7.537h23.79c8.713 0 15.468-2.448 19.971-6.95 3.818-3.819 5.876-9.203 5.876-15.666v-0.195c0-10.768-5.384-17.426-13.708-20.853l10.477-12.728c1.468-1.861 2.447-3.426 2.447-5.776 0-4.211-3.524-6.951-7.147-6.951-3.427 0-5.679 1.664-7.44 3.916l-14.686 18.6h-12.042v-14.978c0-4.209-3.329-7.538-7.538-7.538-4.21 0-7.539 3.329-7.539 7.538z" fill="#fff" stroke="#114794"/>
  </g>
  <g transform="translate(879.52 210.98)">
   <path d="m0 0c-1.663 1.174-2.839 3.329-2.839 5.679 0 3.916 3.134 6.95 7.049 6.95 1.958 0 3.329-0.684 4.308-1.371 5.19-3.818 10.866-6.166 17.524-6.166 6.168 0 9.889 2.447 9.889 6.461v0.195c0 3.818-2.35 5.776-13.805 8.713-13.805 3.526-22.713 7.344-22.713 20.952v0.195c0 12.434 9.987 20.658 23.987 20.658 8.321 0 15.566-2.153 21.734-6.069 1.663-0.979 3.329-3.037 3.329-5.973 0-3.916-3.134-6.951-7.05-6.951-1.469 0-2.642 0.392-3.818 1.077-4.993 2.937-9.693 4.602-14.392 4.602-5.777 0-8.811-2.644-8.811-5.973v-0.195c0-4.505 2.937-5.973 14.784-9.008 13.902-3.621 21.734-8.615 21.734-20.56v-0.195c0-13.608-10.379-21.245-25.16-21.245-9.008 0-18.113 2.742-25.75 8.224" fill="#fff" stroke="#114794"/>
  </g>
  <g>
   <path d="m132.04 257.17h-12.122v7.752h12.122z"/>
   <path d="m147.02 257.17h-12.126v7.752h12.126z"/>
   <path d="m162.2 257.17h-12.126v7.752h12.126z"/>
   <path d="m177.37 257.17h-12.118v7.752h12.118z"/>
   <path d="m192.35 257.17h-12.122v7.752h12.122z"/>
   <path d="m207.02 257.17h-12.22v7.752h12.22z"/>
  </g>
  <g transform="translate(226.18 245.05)">
   <path d="m0 0v9.473h-13.874v13.454h4.911v53.615h-3.367v-45.866h-25.585v7.54h-1.932v-7.756h-14.873v8.262h-2.861v16.523h2.861v6.106h11.616v-6.106h3.058v14.062h-3.058v-3.868h-11.616v3.868h-2.861v9.062h26.698v7.854h-26.698v6.208h-3.551v8.877h6.208v2.242h-6.208v15.292h3.771v1.827h-3.771v1.736h-3.468v-1.736h-3.763v-1.827h3.763v-15.292h-6.208v-2.242h6.208v-8.877h-3.567v-6.208h-26.698v-7.854h26.698v-9.062h-2.959v-3.868h-11.491v3.868h-3.065v-14.062h3.065v6.106h11.491v-6.106h2.959v-16.523h-3.061v-8.262h-15.171v7.756h-1.932v-7.54h-25.569v45.866h-3.269v-53.615h4.899v-13.454h-13.956v-9.473h9.175v-12.949h-8.771v-39.443s6.917-20.082 29.547-34.763c0 0 4.989-3.05 8.649-4.794 3.669-1.728 10.092-5.698 12.122-7.642 1.94-2.046 5.511-4.891 12.224-4.891h0.416c6.717 0 10.284 2.845 12.228 4.891 2.038 1.944 8.461 5.914 12.122 7.642 3.57 1.744 8.563 4.794 8.563 4.794 22.712 14.681 29.634 34.763 29.634 34.763v39.443h-8.846v12.949zm-12.33-13.568-50.534 18.859v-58.102h-53.086c-7.439 0-6.212 7.654-6.212 7.654v29.852h9.167v2.25l50.131 18.346v4.284l-50.131-18.142v8.148h4.186v22.743h92.09v-12.749h-46.145l50.534-18.652z" fill="#fff" stroke="#114794"/>
  </g>
  <g transform="translate(142.33 204.28)">
   <path d="m0 0v21.203h3.868v2.441h-3.868v4.997h-3.978v-4.997h-3.966v-2.441h3.966v-21.203c-2.446 0.2-7.435 1.317-11.922 7.239 0 0 0.203-6.941 11.322-10.089 0 0 2.328-0.83 2.438-2.355 0 1.525 2.445 2.355 2.445 2.355 10.994 3.148 11.312 10.089 11.312 10.089-4.375-5.707-9.074-6.941-11.617-7.239" fill="#fff" stroke="#114794"/>
  </g>
  <path d="m268.9 347.17h4.243v-182.39h-4.243z"/>
 </g>
</svg>
