<?xml version="1.0" encoding="UTF-8"?>
<!-- Created with Inkscape (http://www.inkscape.org/) -->
<svg width="120" height="40" version="1.1" viewBox="0 0 31.75 10.583" xmlns="http://www.w3.org/2000/svg">
 <defs>
  <clipPath id="clipPath838">
   <path d="M 0,508.032 H 1027.531 V 0 H 0 Z"/>
  </clipPath>
 </defs>
 <g transform="matrix(.038208 0 0 -.038208 -3.7679 15.035)" clip-path="url(#clipPath838)" fill="#fff" stroke="#114794">
  <g transform="translate(348.19 262.88)">
   <path d="m0 0c7.675 0 14.84 3.844 19.083 10.239l29.484 44.433h-42.683c-7.676 0-14.84-3.845-19.084-10.24l-5.883-8.866c-10.102-15.224 0.813-35.566 19.083-35.566" fill="#fff" stroke="#114794"/>
  </g>
  <g transform="translate(544.57 317.56)">
   <path d="m0 0h-16.026v-129.89c0-12.641 10.247-22.888 22.888-22.888s22.888 10.247 22.888 22.888v100.14c0 16.431-13.32 29.75-29.75 29.75" fill="#fff" stroke="#114794"/>
  </g>
  <g transform="translate(504.85 257.61)">
   <path d="m0 0-11.613-7.706c-15.223-10.102-35.566 0.813-35.566 19.083 0 7.675 3.844 14.84 10.239 19.083l44.432 29.484v-45.98c0-5.616-2.813-10.859-7.492-13.964" fill="#fff" stroke="#114794"/>
  </g>
  <g transform="translate(413.58 317.56)">
   <path d="m0 0-82.718-126.61c-7.35-11.251 0.722-26.167 14.161-26.167h23.716l69.747 106.76c12.927 19.787-1.27 46.021-24.906 46.021" fill="#fff" stroke="#114794"/>
  </g>
  <g transform="translate(440.71 210.55)">
   <path d="m0 0h-12.349c-7.949 0-15.361-4.011-19.708-10.666l-22.938-35.11h55.754c12.783 0 23.119 10.48 22.884 23.317-0.23 12.6-11.041 22.459-23.643 22.459" fill="#fff" stroke="#114794"/>
  </g>
  <g transform="translate(644.68 234.42)">
   <path d="m0 0-10.303 24.534-10.306-24.534zm-45.997-20.611 25.919 58.532c1.806 4.038 5.101 6.478 9.562 6.478h0.957c4.461 0 7.648-2.44 9.454-6.478l25.919-58.532c0.531-1.167 0.849-2.23 0.849-3.292 0-4.358-3.399-7.86-7.753-7.86-3.825 0-6.375 2.229-7.863 5.631l-4.992 11.683h-32.718l-5.206-12.214c-1.38-3.191-4.143-5.1-7.542-5.1-4.249 0-7.54 3.396-7.54 7.645 0 1.172 0.423 2.34 0.954 3.507" fill="#fff" stroke="#114794"/>
  </g>
  <g transform="translate(706.72 284.8)">
   <path d="m0 0c-2.55 0-4.78 2.124-4.78 4.354 0 0.741 0.211 2.019 0.531 2.87 2.338 6.158 5.416 10.406 11.897 10.406 6.585 0 12.111-4.138 15.934-4.138 2.55 0 3.718 0.952 4.993 3.076 0.849 1.383 2.232 2.445 4.143 2.445 2.55 0 4.779-2.124 4.779-4.354 0-0.746-0.21-2.019-0.531-2.87-2.337-6.163-5.416-10.411-11.896-10.411-6.586 0-12.109 4.143-15.934 4.143-2.55 0-3.718-0.957-4.993-3.081-0.849-1.378-2.232-2.44-4.143-2.44m-17.209-14.908c0 4.569 3.612 8.181 8.178 8.181h1.701c3.931 0 6.268-1.914 8.497-4.78l31.551-41.427v38.346c0 4.459 3.612 8.071 8.074 8.071 4.461 0 8.073-3.612 8.073-8.071v-59.168c0-4.569-3.612-8.181-8.179-8.181h-0.531c-3.933 0-6.267 1.913-8.499 4.779l-32.718 42.916v-39.835c0-4.459-3.612-8.071-8.074-8.071-4.461 0-8.073 3.612-8.073 8.071z" fill="#fff" stroke="#114794"/>
  </g>
  <g transform="translate(837.38 240.26)">
   <path d="m0 0v0.211c0 12.745-9.346 23.371-22.52 23.371-13.171 0-22.307-10.411-22.307-23.156v-0.215c0-12.746 9.349-23.372 22.52-23.372s22.307 10.411 22.307 23.161m-61.929 0v0.211c0 21.142 16.676 38.456 39.622 38.456s39.411-17.104 39.411-38.241v-0.215c0-21.138-16.678-38.452-39.624-38.452-22.943 0-39.409 17.099-39.409 38.241" fill="#fff" stroke="#114794"/>
  </g>
  <g transform="translate(872.34 211.15)">
   <path d="m0 0c-1.804 1.273-3.079 3.612-3.079 6.162 0 4.249 3.4 7.54 7.648 7.54 2.124 0 3.612-0.741 4.674-1.488 5.629-4.143 11.791-6.688 19.013-6.688 6.694 0 10.732 2.655 10.732 7.009v0.211c0 4.143-2.55 6.267-14.98 9.453-14.978 3.828-24.644 7.971-24.644 22.736v0.21c0 13.492 10.834 22.415 26.027 22.415 9.028 0 16.888-2.335 23.582-6.583 1.806-1.062 3.612-3.297 3.612-6.483 0-4.249-3.399-7.54-7.65-7.54-1.593 0-2.868 0.426-4.143 1.167-5.416 3.187-10.517 4.995-15.614 4.995-6.268 0-9.562-2.871-9.562-6.483v-0.21c0-4.89 3.187-6.483 16.042-9.775 15.083-3.928 23.582-9.348 23.582-22.309v-0.211c0-14.764-11.26-23.051-27.302-23.051-9.772 0-19.652 2.976-27.938 8.923" fill="#fff" stroke="#114794"/>
  </g>
  <g transform="translate(924.92 293.45)">
   <path d="m0 0h-169.33c-1.469 0-2.658 1.189-2.658 2.658s1.189 2.657 2.658 2.657h169.33c1.469 0 2.658-1.188 2.658-2.657s-1.189-2.658-2.658-2.658" fill="#fff" stroke="#114794"/>
  </g>
  <g transform="translate(924.92 178.52)">
   <path d="m0 0h-331.35c-1.469 0-2.657 1.189-2.657 2.658s1.188 2.657 2.657 2.657h331.35c1.469 0 2.658-1.188 2.658-2.657s-1.189-2.658-2.658-2.658" fill="#fff" stroke="#114794"/>
  </g>
  <g transform="translate(689.51 293.45)">
   <path d="m0 0h-94.612c-1.469 0-2.658 1.189-2.658 2.658s1.189 2.657 2.658 2.657h94.612c1.469 0 2.658-1.188 2.658-2.657s-1.189-2.658-2.658-2.658" fill="#fff" stroke="#114794"/>
  </g>
  <g>
   <path d="m132.04 257.17h-12.122v7.752h12.122z"/>
   <path d="m147.02 257.17h-12.126v7.752h12.126z"/>
   <path d="m162.2 257.17h-12.126v7.752h12.126z"/>
   <path d="m177.37 257.17h-12.118v7.752h12.118z"/>
   <path d="m192.35 257.17h-12.122v7.752h12.122z"/>
   <path d="m207.02 257.17h-12.22v7.752h12.22z"/>
  </g>
  <g transform="translate(226.18 245.05)">
   <path d="m0 0v9.473h-13.874v13.454h4.911v53.615h-3.367v-45.866h-25.585v7.54h-1.932v-7.756h-14.873v8.262h-2.861v16.523h2.861v6.106h11.616v-6.106h3.058v14.062h-3.058v-3.868h-11.616v3.868h-2.861v9.062h26.698v7.854h-26.698v6.208h-3.551v8.877h6.208v2.242h-6.208v15.292h3.771v1.827h-3.771v1.736h-3.468v-1.736h-3.763v-1.827h3.763v-15.292h-6.208v-2.242h6.208v-8.877h-3.567v-6.208h-26.698v-7.854h26.698v-9.062h-2.959v-3.868h-11.491v3.868h-3.065v-14.062h3.065v6.106h11.491v-6.106h2.959v-16.523h-3.061v-8.262h-15.171v7.756h-1.932v-7.54h-25.569v45.866h-3.269v-53.615h4.899v-13.454h-13.956v-9.473h9.175v-12.949h-8.771v-39.443s6.917-20.082 29.547-34.763c0 0 4.989-3.05 8.649-4.794 3.669-1.728 10.092-5.698 12.122-7.642 1.94-2.046 5.511-4.891 12.224-4.891h0.416c6.717 0 10.284 2.845 12.228 4.891 2.038 1.944 8.461 5.914 12.122 7.642 3.57 1.744 8.563 4.794 8.563 4.794 22.712 14.681 29.634 34.763 29.634 34.763v39.443h-8.846v12.949zm-12.33-13.568-50.534 18.859v-58.102h-53.086c-7.439 0-6.212 7.654-6.212 7.654v29.852h9.167v2.25l50.131 18.346v4.284l-50.131-18.142v8.148h4.186v22.743h92.09v-12.749h-46.145l50.534-18.652z" fill="#fff" stroke="#114794"/>
  </g>
  <g transform="translate(142.33 204.28)">
   <path d="m0 0v21.203h3.868v2.441h-3.868v4.997h-3.978v-4.997h-3.966v-2.441h3.966v-21.203c-2.446 0.2-7.435 1.317-11.922 7.239 0 0 0.203-6.941 11.322-10.089 0 0 2.328-0.83 2.438-2.355 0 1.525 2.445 2.355 2.445 2.355 10.994 3.148 11.312 10.089 11.312 10.089-4.375-5.707-9.074-6.941-11.617-7.239" fill="#fff" stroke="#114794"/>
  </g>
  <path d="m268.9 347.17h4.243v-182.39h-4.243z"/>
 </g>
</svg>
