<?xml version="1.0" encoding="UTF-8"?>
<!DOCTYPE svg PUBLIC "-//W3C//DTD SVG 1.1//EN" "http://www.w3.org/Graphics/SVG/1.1/DTD/svg11.dtd">
<!-- Creator: CorelDRAW -->
<svg xmlns="http://www.w3.org/2000/svg" xml:space="preserve" width="300px" height="301px" style="shape-rendering:geometricPrecision; text-rendering:geometricPrecision; image-rendering:optimizeQuality; fill-rule:evenodd; clip-rule:evenodd"
viewBox="0 0 44.2939 44.438"
 xmlns:xlink="http://www.w3.org/1999/xlink">
 <defs>
  <style type="text/css">
   <![CDATA[
    .fil0 {fill:#003882}
   ]]>
  </style>
 </defs>
 <g id="Capa_x0020_1">
  <metadata id="CorelCorpID_0Corel-Layer"/>
  <path class="fil0" d="M5.51459 41.5753c0,-0.569194 0.0828331,-1.05015 0.249371,-1.44042 0.126604,-0.2839 0.295235,-0.536759 0.512868,-0.765727 0.21432,-0.224783 0.453402,-0.396553 0.709749,-0.505718 0.342319,-0.14753 0.737477,-0.221295 1.18338,-0.221295 0.811765,0 1.45978,0.256521 1.94632,0.769738 0.484966,0.512694 0.727188,1.22209 0.727188,2.13553 0,0.90262 -0.240826,1.61219 -0.723526,2.1214 -0.481653,0.513042 -1.12827,0.769215 -1.93219,0.769215 -0.818391,0 -1.46833,-0.256172 -1.9512,-0.762239 -0.482874,-0.509206 -0.721956,-1.21181 -0.721956,-2.10047m26.8331 -30.0644l-1.26813 0 0 -0.811242 1.26813 0 0 0.811242zm7.00577 32.8323l0 -5.60597 2.33415 0c0.588377,0 1.01492,0.0491767 1.28191,0.154506 0.267159,0.0946914 0.477816,0.277447 0.637554,0.530481 0.159912,0.260009 0.240652,0.558208 0.240652,0.885181 0.000174386,0.421315 -0.122942,0.769215 -0.361676,1.04666 -0.24257,0.270646 -0.604246,0.442591 -1.08555,0.516181 0.239431,0.140729 0.435615,0.298722 0.590295,0.467353 0.157993,0.172467 0.368477,0.47398 0.631799,0.909595l0.671384 1.09601 -1.32795 0 -0.800604 -1.22227c-0.284597,-0.435615 -0.477991,-0.709924 -0.585064,-0.821879 -0.103585,-0.112479 -0.214145,-0.193045 -0.331856,-0.231758 -0.119454,-0.0423757 -0.305349,-0.0636507 -0.56187,-0.0636507l-0.221295 0 0 2.33956 -1.11188 0zm1.11188 -3.23136l0.817694 0c0.534317,0 0.868266,-0.0247627 0.998183,-0.0739395 0.131487,-0.0422013 0.23699,-0.11928 0.309186,-0.235246 0.0770784,-0.109165 0.115618,-0.253033 0.115618,-0.417828 0,-0.189906 -0.0493511,-0.344411 -0.147356,-0.460203 -0.0985278,-0.116315 -0.238734,-0.189906 -0.418177,-0.221295 -0.091378,-0.0108119 -0.360281,-0.0179617 -0.807928,-0.0179617l-0.867219 0 0 1.42647zm-1.72153 3.23136l-1.20622 0 -0.477816 -1.27493 -2.19883 0 -0.456541 1.27493 -1.17867 0 2.14302 -5.60597 1.17274 0 2.20232 5.60597zm-2.04397 -2.21993l-0.757182 -2.07937 -0.74637 2.07937 1.50355 0zm-9.37183 2.21993l0 -5.60597 1.65771 0 0.993998 3.82532 0.985627 -3.82532 1.6598 0 0 5.60597 -1.02608 0 0 -4.41161 -1.09043 4.41161 -1.06951 0 -1.08224 -4.41161 -0.00296455 4.41161 -1.02591 0zm-2.037 -2.06176l1.07805 0.347725c-0.165318,0.611221 -0.438928,1.06445 -0.825716,1.36317 -0.381032,0.29506 -0.867568,0.445729 -1.45699,0.445729 -0.732942,0 -1.32812,-0.256172 -1.8028,-0.762239 -0.46683,-0.509206 -0.702251,-1.20483 -0.702251,-2.08652 0.000174386,-0.934358 0.23699,-1.65771 0.706087,-2.17389 0.474503,-0.516704 1.09584,-0.773226 1.86523,-0.773226 0.674349,0 1.21843,0.200718 1.63661,0.604246 0.249894,0.24257 0.439277,0.583145 0.563963,1.03271l-1.1009 0.266636c-0.0629532,-0.287911 -0.200543,-0.516181 -0.407713,-0.684463 -0.203334,-0.168805 -0.454972,-0.253033 -0.749858,-0.253033 -0.409283,0 -0.735733,0.151192 -0.992428,0.449566 -0.250592,0.295235 -0.379637,0.779678 -0.379637,1.4474 0,0.706087 0.12486,1.21494 0.375975,1.51367 0.249894,0.30221 0.574775,0.453402 0.972897,0.453402 0.295235,0 0.548443,-0.0948657 0.762588,-0.288259 0.21432,-0.19287 0.365163,-0.491767 0.45689,-0.90262zm-8.72904 2.06176l0 -5.60597 4.07591 0 0 0.948134 -2.96246 0 0 1.24023 2.75564 0 0 0.948657 -2.75564 0 0 1.52029 3.06849 0 0 0.948657 -4.18194 0zm-3.48649 0l0 -4.65784 -1.62771 0 0 -0.948134 4.36417 0 0 0.948134 -1.6244 0 0 4.65784 -1.11206 0zm-6.41913 -2.80621c0,0.631973 0.144217,1.1131 0.432127,1.44321 0.287911,0.326799 0.653423,0.492116 1.09584,0.492116 0.442591,0 0.80601,-0.161655 1.09043,-0.48828 0.286167,-0.323136 0.427245,-0.815078 0.427245,-1.46484 0,-0.64296 -0.138985,-1.12043 -0.414689,-1.43659 -0.277447,-0.316161 -0.64296,-0.474329 -1.10299,-0.474329 -0.460203,0 -0.825367,0.161655 -1.10979,0.481304 -0.279366,0.319823 -0.418177,0.800778 -0.418177,1.4474zm-2.94537 0.744452l1.07666 0.347725c-0.165143,0.611221 -0.438928,1.06445 -0.821879,1.36317 -0.384695,0.29506 -0.87123,0.445729 -1.46135,0.445729 -0.730501,0 -1.32777,-0.256172 -1.79826,-0.762239 -0.470841,-0.509206 -0.706087,-1.20483 -0.706087,-2.08652 0,-0.934358 0.238734,-1.65771 0.7094,-2.17389 0.470667,-0.516704 1.09235,-0.773226 1.86366,-0.773226 0.672605,0 1.21704,0.200718 1.63661,0.604246 0.25129,0.24257 0.437359,0.583145 0.563963,1.03271l-1.10299 0.266636c-0.0631276,-0.287911 -0.200195,-0.516181 -0.404051,-0.684463 -0.207344,-0.168805 -0.458285,-0.253033 -0.751427,-0.253033 -0.411201,0 -0.737825,0.151192 -0.99051,0.449566 -0.256521,0.295235 -0.383299,0.779678 -0.383299,1.4474 0,0.706087 0.126778,1.21494 0.37737,1.51367 0.248151,0.30221 0.573031,0.453402 0.975164,0.453402 0.291747,0 0.547919,-0.0948657 0.758752,-0.288259 0.21432,-0.19287 0.365512,-0.491767 0.458285,-0.90262zm21.4041 -22.4l6.97943 5.54999c0.667722,0.530655 0.779503,1.49989 0.247279,2.17058 -0.529609,0.67121 -1.50303,0.780027 -2.17197,0.249546 0.000174386,0 -3.89909,-3.10162 -7.55229,-6.00287l-0.0226701 -0.0177873c-2.33398,-1.84744 -4.13974,-3.32257 -5.33062,-4.26425 -0.287911,-0.168456 -0.81316,-0.344237 -1.41183,0.0807405 -3.11575,2.47662 -12.8419,10.2042 -12.8419,10.2042 -0.667374,0.530481 -1.63905,0.421664 -2.17093,-0.249546 -0.530481,-0.670687 -0.417828,-1.63992 0.249546,-2.17058l7.02617 -5.5833 -0.0362722 0.0228445c3.67413,-2.9295 7.53799,-6.01002 7.53799,-6.01002 0.284772,-0.22426 0.630055,-0.33482 0.974641,-0.331158 0.344586,-0.0036621 0.689869,0.106898 0.974815,0.331158 0.000174386,0 3.86404,3.0807 7.53799,6.01002l0.0106375 0.0104631zm18.2442 4.90372c-0.530132,-0.667374 -1.49937,-0.779678 -2.16883,-0.249371 0,0 -6.3295,5.22337 -8.93761,7.34128 -0.702425,0.565532 -1.31417,0.270472 -1.58081,0.0880647 -0.0416781,-0.0354003 -0.0842282,-0.0706261 -0.129917,-0.105852 -0.00697542,-0.00662665 -0.012207,-0.0101144 -0.012207,-0.0101144l0 0c-3.28455,-2.61352 -12.9635,-10.3341 -12.9635,-10.3341 -0.56187,-0.442765 -1.35934,-0.442765 -1.92138,0.00680104l-14.556 11.5639c-0.667374,0.530132 -0.780027,1.50285 -0.249546,2.17424 0.531876,0.667199 1.50355,0.77619 2.17093,0.245186 0,0 9.72601,-7.72388 12.8419,-10.2035 0.59884,-0.421664 1.12391,-0.249546 1.41183,-0.0809149 3.01949,2.38856 13.0807,10.3517 13.0807,10.3517 0.564312,0.445904 1.7109,0.425152 2.27329,-0.0211007l10.4937 -8.59198c0.669292,-0.530306 0.779678,-1.50355 0.247453,-2.17424zm-9.94346 -7.75929l0 -2.20249 0.403354 0 0 -0.259834 -0.403354 0 0 -0.523505 -0.406318 0 0 0.523505 -0.423059 0 0 0.259834 0.423059 0 0 2.20598c-0.26524,-0.0139508 -0.778108,-0.137241 -1.25191,-0.755264 0,0 0.024414,0.727362 1.18024,1.05747 0,0 0.250941,0.0840538 0.256172,0.242396l0 0.00331333c0,0 0,0 0,-0.00331333l0 0.00331333 0 -0.00331333c0.00383648,-0.158342 0.256696,-0.242396 0.256696,-0.242396 1.15373,-0.330286 1.17989,-1.05747 1.17989,-1.05747 -0.452705,0.593783 -0.941333,0.727362 -1.21477,0.751776zm8.75991 -4.24664l0 -0.993998 -1.45403 0 0 -1.3984 0.513042 0 0 -5.59533 -0.347899 0 0 4.78409 -2.66932 0 0 -0.790315 -0.202462 0 0 0.811416 -1.55465 0 0 -0.867568 -0.292793 0 0 -1.72119 0.292793 0 0 -0.632322 1.21564 0 0 0.632322 0.323311 0 0 -1.46135 -0.323311 0 0 0.404051 -1.21564 0 0 -0.404051 -0.292793 0 0 -0.951796 2.78005 0 0 -0.822053 -2.78005 0 0 -0.642785 -0.370918 0 0 -0.92372 0.639472 0 0 -0.231758 -0.639472 0 0 -1.59824 0.391844 0 0 -0.193394 -0.391844 0 0 -0.182756 -0.366733 0 0 0.182756 -0.399343 0 0 0.193394 0.399343 0 0 1.59824 -0.646447 0 0 0.231758 0.646447 0 0 0.92372 -0.375626 0 0 0.642785 -2.7804 0 0 0.822053 2.7804 0 0 0.951796 -0.305698 0 0 0.404051 -1.19977 0 0 -0.404051 -0.323136 0 0 1.46135 0.323136 0 0 -0.632322 1.19977 0 0 0.632322 0.305698 0 0 1.72119 -0.314592 0 0 0.867568 -1.58447 0 0 -0.811416 -0.200369 0 0 0.790315 -2.66897 0 0 -4.78409 -0.347725 0 0 5.59533 0.514437 0 0 1.3984 -1.45263 0 0 0.993998 0.955284 0 0 1.34504 -0.920058 0 0 4.12056c0,0 0.7237,2.0935 3.09081,3.62478 0.000174386,0 0.518274,0.316161 0.897388,0.498917 0.379637,0.186244 1.05399,0.593783 1.26273,0.800953 0.211181,0.210832 0.574775,0.512519 1.27528,0.512519 0.00906805,0 0.0156947,-0.00331333 0.024414,-0.00331333 0.0108119,0 0.0174386,0.00331333 0.0249371,0.00331333 0.702425,0 1.06776,-0.301687 1.27476,-0.512519 0.210832,-0.20717 0.882042,-0.614709 1.26464,-0.800953 0.379289,-0.182756 0.895644,-0.498917 0.895644,-0.498917 2.36798,-1.53128 3.09116,-3.62478 3.09116,-3.62478l0 -4.12056 -0.916745 0 0 -1.34504 0.955458 0zm-1.29429 1.40816l-5.27045 -1.95992 0 6.05955 -5.54668 0c-0.77619,0 -0.642785,-0.797465 -0.642785,-0.797465l0.000174386 -3.12272 0.951796 0 0 -0.224783 5.2375 -1.91458 0 -0.449566 -5.2375 1.8933 0 -0.853443 0.442591 0 0 -2.37095 9.61422 0 0 1.33108 -4.81932 0 5.27202 1.94266 -0.00156947 0.46683zm-0.711144 -2.67647l-1.27162 0 0 -0.811242 1.27162 0 0 0.811242zm-1.52814 0l-1.27162 0 0 -0.811242 1.27162 0 0 0.811242zm-1.56494 0l-1.27005 0 0 -0.811242 1.27005 0 0 0.811242zm-1.58255 0l-1.27145 0 0 -0.811242 1.27145 0 0 0.811242zm-1.58203 0l-1.27005 0 0 -0.811242 1.27005 0 0 0.811242z"/>
 </g>
</svg>
