<?xml version="1.0" encoding="UTF-8" standalone="no"?>
<svg
   xmlns:dc="http://purl.org/dc/elements/1.1/"
   xmlns:cc="http://creativecommons.org/ns#"
   xmlns:rdf="http://www.w3.org/1999/02/22-rdf-syntax-ns#"
   xmlns:svg="http://www.w3.org/2000/svg"
   xmlns="http://www.w3.org/2000/svg"
   xmlns:sodipodi="http://sodipodi.sourceforge.net/DTD/sodipodi-0.dtd"
   xmlns:inkscape="http://www.inkscape.org/namespaces/inkscape"
   xml:space="preserve"
   width="300px"
   height="301px"
   style="shape-rendering:geometricPrecision; text-rendering:geometricPrecision; image-rendering:optimizeQuality; fill-rule:evenodd; clip-rule:evenodd"
   viewBox="0 0 44.2939 44.438"
   version="1.1"
   id="svg1061"
   sodipodi:docname="logo_cotecmar-negativo.svg"
   inkscape:version="1.0.2 (e86c870, 2021-01-15)"><metadata
   id="metadata1065"><rdf:RDF><cc:Work
       rdf:about=""><dc:format>image/svg+xml</dc:format><dc:type
         rdf:resource="http://purl.org/dc/dcmitype/StillImage" /><dc:title></dc:title></cc:Work></rdf:RDF></metadata><sodipodi:namedview
   pagecolor="#ffffff"
   bordercolor="#666666"
   borderopacity="1"
   objecttolerance="10"
   gridtolerance="10"
   guidetolerance="10"
   inkscape:pageopacity="0"
   inkscape:pageshadow="2"
   inkscape:window-width="3727"
   inkscape:window-height="2126"
   id="namedview1063"
   showgrid="false"
   inkscape:zoom="6.3322259"
   inkscape:cx="150"
   inkscape:cy="175.76758"
   inkscape:window-x="102"
   inkscape:window-y="-11"
   inkscape:window-maximized="1"
   inkscape:current-layer="svg1061" />
 <defs
   id="defs1055">
  <style
   type="text/css"
   id="style1053">
   <![CDATA[
    .fil0 {fill:#003882}
   ]]>
  </style>
 
  
  
 </defs>
 <path
   class="fil0"
   d="m 5.51459,41.5753 c 0,-0.569194 0.082833,-1.05015 0.249371,-1.44042 0.126604,-0.2839 0.295235,-0.536759 0.512868,-0.765727 0.21432,-0.224783 0.453402,-0.396553 0.709749,-0.505718 0.342319,-0.14753 0.737477,-0.221295 1.18338,-0.221295 0.811765,0 1.45978,0.256521 1.94632,0.769738 0.484966,0.512694 0.727188,1.22209 0.727188,2.13553 0,0.90262 -0.240826,1.61219 -0.723526,2.1214 -0.481653,0.513042 -1.12827,0.769215 -1.93219,0.769215 -0.818391,0 -1.46833,-0.256172 -1.9512,-0.762239 -0.482874,-0.509206 -0.721956,-1.21181 -0.721956,-2.10047 m 26.8331,-30.0644 h -1.26813 v -0.811242 h 1.26813 z m 7.00577,32.8323 v -5.60597 h 2.33415 c 0.588377,0 1.01492,0.04918 1.28191,0.154506 0.267159,0.09469 0.477816,0.277447 0.637554,0.530481 0.159912,0.260009 0.240652,0.558208 0.240652,0.885181 1.74e-4,0.421315 -0.122942,0.769215 -0.361676,1.04666 -0.24257,0.270646 -0.604246,0.442591 -1.08555,0.516181 0.239431,0.140729 0.435615,0.298722 0.590295,0.467353 0.157993,0.172467 0.368477,0.47398 0.631799,0.909595 l 0.671384,1.09601 h -1.32795 l -0.800604,-1.22227 c -0.284597,-0.435615 -0.477991,-0.709924 -0.585064,-0.821879 -0.103585,-0.112479 -0.214145,-0.193045 -0.331856,-0.231758 -0.119454,-0.04238 -0.305349,-0.06365 -0.56187,-0.06365 h -0.221295 v 2.33956 z m 1.11188,-3.23136 h 0.817694 c 0.534317,0 0.868266,-0.02476 0.998183,-0.07394 0.131487,-0.0422 0.23699,-0.11928 0.309186,-0.235246 0.07708,-0.109165 0.115618,-0.253033 0.115618,-0.417828 0,-0.189906 -0.04935,-0.344411 -0.147356,-0.460203 -0.09853,-0.116315 -0.238734,-0.189906 -0.418177,-0.221295 -0.09138,-0.01081 -0.360281,-0.01796 -0.807928,-0.01796 h -0.867219 v 1.42647 z m -1.72153,3.23136 h -1.20622 l -0.477816,-1.27493 h -2.19883 l -0.456541,1.27493 h -1.17867 l 2.14302,-5.60597 h 1.17274 l 2.20232,5.60597 z m -2.04397,-2.21993 -0.757182,-2.07937 -0.74637,2.07937 h 1.50355 z m -9.37183,2.21993 v -5.60597 h 1.65771 l 0.993998,3.82532 0.985627,-3.82532 h 1.6598 v 5.60597 h -1.02608 v -4.41161 l -1.09043,4.41161 h -1.06951 l -1.08224,-4.41161 -0.003,4.41161 z m -2.037,-2.06176 1.07805,0.347725 c -0.165318,0.611221 -0.438928,1.06445 -0.825716,1.36317 -0.381032,0.29506 -0.867568,0.445729 -1.45699,0.445729 -0.732942,0 -1.32812,-0.256172 -1.8028,-0.762239 -0.46683,-0.509206 -0.702251,-1.20483 -0.702251,-2.08652 1.74e-4,-0.934358 0.23699,-1.65771 0.706087,-2.17389 0.474503,-0.516704 1.09584,-0.773226 1.86523,-0.773226 0.674349,0 1.21843,0.200718 1.63661,0.604246 0.249894,0.24257 0.439277,0.583145 0.563963,1.03271 l -1.1009,0.266636 c -0.06295,-0.287911 -0.200543,-0.516181 -0.407713,-0.684463 -0.203334,-0.168805 -0.454972,-0.253033 -0.749858,-0.253033 -0.409283,0 -0.735733,0.151192 -0.992428,0.449566 -0.250592,0.295235 -0.379637,0.779678 -0.379637,1.4474 0,0.706087 0.12486,1.21494 0.375975,1.51367 0.249894,0.30221 0.574775,0.453402 0.972897,0.453402 0.295235,0 0.548443,-0.09487 0.762588,-0.288259 0.21432,-0.19287 0.365163,-0.491767 0.45689,-0.90262 z m -8.72904,2.06176 v -5.60597 h 4.07591 v 0.948134 h -2.96246 v 1.24023 h 2.75564 v 0.948657 h -2.75564 v 1.52029 h 3.06849 v 0.948657 h -4.18194 z m -3.48649,0 v -4.65784 h -1.62771 V 38.73724 h 4.36417 v 0.948134 h -1.6244 v 4.65784 z m -6.41913,-2.80621 c 0,0.631973 0.144217,1.1131 0.432127,1.44321 0.287911,0.326799 0.653423,0.492116 1.09584,0.492116 0.442591,0 0.80601,-0.161655 1.09043,-0.48828 0.286167,-0.323136 0.427245,-0.815078 0.427245,-1.46484 0,-0.64296 -0.138985,-1.12043 -0.414689,-1.43659 -0.277447,-0.316161 -0.64296,-0.474329 -1.10299,-0.474329 -0.460203,0 -0.825367,0.161655 -1.10979,0.481304 -0.279366,0.319823 -0.418177,0.800778 -0.418177,1.4474 z m -2.94537,0.744452 1.07666,0.347725 c -0.165143,0.611221 -0.438928,1.06445 -0.821879,1.36317 -0.384695,0.29506 -0.87123,0.445729 -1.46135,0.445729 -0.730501,0 -1.32777,-0.256172 -1.79826,-0.762239 C 0.235314,43.166635 6.8e-5,42.471011 6.8e-5,41.589321 c 0,-0.934358 0.238734,-1.65771 0.7094,-2.17389 0.470667,-0.516704 1.09235,-0.773226 1.86366,-0.773226 0.672605,0 1.21704,0.200718 1.63661,0.604246 0.25129,0.24257 0.437359,0.583145 0.563963,1.03271 l -1.10299,0.266636 C 3.6075834,40.257886 3.470516,40.029616 3.26666,39.861334 3.059316,39.692529 2.808375,39.608301 2.515233,39.608301 c -0.411201,0 -0.737825,0.151192 -0.99051,0.449566 -0.256521,0.295235 -0.383299,0.779678 -0.383299,1.4474 0,0.706087 0.126778,1.21494 0.37737,1.51367 0.248151,0.30221 0.573031,0.453402 0.975164,0.453402 0.291747,0 0.547919,-0.09487 0.758752,-0.288259 0.21432,-0.19287 0.365512,-0.491767 0.458285,-0.90262 z m 21.4041,-22.4 6.97943,5.54999 c 0.667722,0.530655 0.779503,1.49989 0.247279,2.17058 -0.529609,0.67121 -1.50303,0.780027 -2.17197,0.249546 1.74e-4,0 -3.89909,-3.10162 -7.55229,-6.00287 l -0.02267,-0.01779 c -2.33398,-1.84744 -4.13974,-3.32257 -5.33062,-4.26425 -0.287911,-0.168456 -0.81316,-0.344237 -1.41183,0.08074 -3.11575,2.47662 -12.8419001,10.2042 -12.8419001,10.2042 -0.667374,0.530481 -1.63905,0.421664 -2.17093,-0.249546 -0.530481,-0.670687 -0.417828,-1.63992 0.249546,-2.17058 l 7.02617,-5.5833 -0.036272,0.02285 c 3.6741301,-2.9295 7.5379901,-6.01002 7.5379901,-6.01002 0.284772,-0.22426 0.630055,-0.33482 0.974641,-0.331158 0.344586,-0.0037 0.689869,0.106898 0.974815,0.331158 1.74e-4,0 3.86404,3.0807 7.53799,6.01002 l 0.01064,0.01046 z m 18.2442,4.90372 c -0.530132,-0.667374 -1.49937,-0.779678 -2.16883,-0.249371 0,0 -6.3295,5.22337 -8.93761,7.34128 -0.702425,0.565532 -1.31417,0.270472 -1.58081,0.08807 -0.04168,-0.0354 -0.08423,-0.07063 -0.129917,-0.105852 -0.007,-0.0066 -0.01221,-0.01011 -0.01221,-0.01011 v 0 c -3.28455,-2.61352 -12.9635,-10.3341 -12.9635,-10.3341 -0.56187,-0.442765 -1.35934,-0.442765 -1.92138,0.0068 l -14.556,11.5639 c -0.667374,0.530132 -0.780027,1.50285 -0.249546,2.17424 0.531876,0.667199 1.50355,0.77619 2.17093,0.245186 0,0 9.72601,-7.72388 12.8419,-10.2035 0.59884,-0.421664 1.12391,-0.249546 1.41183,-0.08092 3.01949,2.38856 13.0807,10.3517 13.0807,10.3517 0.564312,0.445904 1.7109,0.425152 2.27329,-0.0211 l 10.4937,-8.59198 c 0.669292,-0.530306 0.779678,-1.50355 0.247453,-2.17424 z m -9.94346,-7.75929 v -2.20249 h 0.403354 v -0.259834 h -0.403354 v -0.523505 h -0.406318 v 0.523505 h -0.423059 v 0.259834 h 0.423059 v 2.20598 c -0.26524,-0.01395 -0.778108,-0.137241 -1.25191,-0.755264 0,0 0.02441,0.727362 1.18024,1.05747 0,0 0.250941,0.08405 0.256172,0.242396 v 0.0033 c 0,0 0,0 0,-0.0033 v 0.0033 -0.0033 c 0.0038,-0.158342 0.256696,-0.242396 0.256696,-0.242396 1.15373,-0.330286 1.17989,-1.05747 1.17989,-1.05747 -0.452705,0.593783 -0.941333,0.727362 -1.21477,0.751776 z m 8.75991,-4.24664 v -0.993998 h -1.45403 v -1.3984 h 0.513042 v -5.59533 h -0.347899 v 4.78409 h -2.66932 V 8.785293 h -0.202462 v 0.811416 h -1.55465 V 8.729141 h -0.292793 v -1.72119 h 0.292793 V 6.375629 h 1.21564 v 0.632322 h 0.323311 v -1.46135 h -0.323311 v 0.404051 h -1.21564 V 5.546601 H 36.167622 V 4.594805 h 2.78005 V 3.772752 h -2.78005 V 3.129967 h -0.370918 v -0.92372 h 0.639472 V 1.974489 h -0.639472 v -1.59824 h 0.391844 V 0.182855 H 35.796704 V 9.9e-5 h -0.366733 v 0.182756 h -0.399343 v 0.193394 h 0.399343 v 1.59824 h -0.646447 v 0.231758 h 0.646447 v 0.92372 h -0.375626 v 0.642785 h -2.7804 v 0.822053 h 2.7804 v 0.951796 h -0.305698 v 0.404051 h -1.19977 V 5.546601 h -0.323136 v 1.46135 h 0.323136 V 6.375629 h 1.19977 v 0.632322 h 0.305698 v 1.72119 h -0.314592 v 0.867568 h -1.58447 V 8.785293 h -0.200369 v 0.790315 h -2.66897 v -4.78409 h -0.347725 v 5.59533 h 0.514437 v 1.3984 h -1.45263 v 0.993998 h 0.955284 v 1.34504 h -0.920058 v 4.12056 c 0,0 0.7237,2.0935 3.09081,3.62478 1.74e-4,0 0.518274,0.316161 0.897388,0.498917 0.379637,0.186244 1.05399,0.593783 1.26273,0.800953 0.211181,0.210832 0.574775,0.512519 1.27528,0.512519 0.0091,0 0.0157,-0.0033 0.02441,-0.0033 0.01081,0 0.01744,0.0033 0.02494,0.0033 0.702425,0 1.06776,-0.301687 1.27476,-0.512519 0.210832,-0.20717 0.882042,-0.614709 1.26464,-0.800953 0.379289,-0.182756 0.895644,-0.498917 0.895644,-0.498917 2.36798,-1.53128 3.09116,-3.62478 3.09116,-3.62478 v -4.12056 H 41.22027 v -1.34504 h 0.955458 z m -1.29429,1.40816 -5.27045,-1.95992 v 6.05955 h -5.54668 c -0.77619,0 -0.642785,-0.797465 -0.642785,-0.797465 l 1.74e-4,-3.12272 h 0.951796 v -0.224783 l 5.2375,-1.91458 v -0.449566 l -5.2375,1.8933 v -0.853443 h 0.442591 v -2.37095 h 9.61422 v 1.33108 h -4.81932 l 5.27202,1.94266 -0.0016,0.46683 z M 40.1703,11.510936 h -1.27162 v -0.811242 h 1.27162 z m -1.52814,0 h -1.27162 v -0.811242 h 1.27162 z m -1.56494,0 h -1.27005 v -0.811242 h 1.27005 z m -1.58255,0 h -1.27145 v -0.811242 h 1.27145 z m -1.58203,0 h -1.27005 v -0.811242 h 1.27005 z"
   id="path1058"
   style="fill:#ffffff;fill-opacity:1" />
</svg>
